<?xml version="1.0" standalone="no"?><!DOCTYPE svg PUBLIC "-//W3C//DTD SVG 1.1//EN" "http://www.w3.org/Graphics/SVG/1.1/DTD/svg11.dtd"><svg t="1777098249043" class="icon" viewBox="0 0 1026 1024" version="1.1" xmlns="http://www.w3.org/2000/svg" p-id="9067" xmlns:xlink="http://www.w3.org/1999/xlink" width="128.25" height="128"><path d="M161.28 399.36h128v110.08c0 12.8 10.24 25.6 25.6 25.6s25.6-10.24 25.6-25.6v-110.08h128c17.92 0 33.28-15.36 33.28-33.28V207.36c0-17.92-15.36-33.28-33.28-33.28h-128V102.4c0-12.8-10.24-25.6-25.6-25.6s-25.6 10.24-25.6 25.6v71.68h-128c-17.92 0-33.28 15.36-33.28 33.28v156.16c0 20.48 15.36 35.84 33.28 35.84z m179.2-179.2h99.84c7.68 0 15.36 7.68 15.36 15.36v102.4c0 7.68-7.68 15.36-15.36 15.36h-99.84V220.16z m-163.84 15.36c0-7.68 7.68-15.36 15.36-15.36h99.84v130.56H192c-7.68 0-15.36-7.68-15.36-15.36V235.52zM665.6 875.52h-153.6c-7.68 0-15.36-7.68-15.36-15.36v-97.28c0-7.68 7.68-15.36 15.36-15.36h135.68c12.8 0 23.04-10.24 23.04-23.04s-10.24-23.04-23.04-23.04H512c-7.68 0-15.36-7.68-15.36-15.36v-87.04c0-7.68 7.68-15.36 15.36-15.36h145.92c12.8 0 23.04-10.24 23.04-23.04s-10.24-23.04-23.04-23.04h-179.2c-17.92 0-33.28 15.36-33.28 33.28v312.32c0 17.92 15.36 33.28 33.28 33.28H665.6c12.8 0 23.04-10.24 23.04-23.04 0-7.68-10.24-17.92-23.04-17.92zM857.6 652.8c-15.36 0-28.16 2.56-38.4 7.68-10.24 5.12-23.04 12.8-30.72 25.6v-2.56c0-15.36-12.8-25.6-25.6-25.6-15.36 0-25.6 12.8-25.6 25.6V896c0 15.36 12.8 25.6 25.6 25.6s25.6-12.8 25.6-25.6v-143.36c2.56-20.48 7.68-33.28 20.48-43.52 10.24-10.24 20.48-12.8 33.28-12.8 35.84 0 53.76 20.48 53.76 58.88V896c0 15.36 12.8 25.6 25.6 25.6s25.6-12.8 25.6-25.6v-145.92c0-66.56-30.72-97.28-89.6-97.28zM512 0h-15.36c-12.8 0-25.6 12.8-25.6 25.6 0 15.36 12.8 25.6 25.6 25.6h15.36c253.44 0 460.8 207.36 460.8 460.8 0 40.96-5.12 81.92-15.36 120.32-5.12 15.36 7.68 33.28 25.6 33.28 12.8 0 23.04-7.68 25.6-17.92 10.24-43.52 17.92-87.04 17.92-133.12C1024 230.4 793.6 0 512 0z" fill="#333333" p-id="9068"></path><path d="M527.36 972.8H512c-253.44 0-460.8-207.36-460.8-460.8 0-40.96 5.12-81.92 15.36-120.32 5.12-15.36-7.68-33.28-25.6-33.28-12.8 0-23.04 7.68-25.6 17.92C5.12 422.4 0 465.92 0 512c0 281.6 230.4 512 512 512h15.36c12.8 0 25.6-12.8 25.6-25.6 0-15.36-12.8-25.6-25.6-25.6z" fill="#333333" p-id="9069"></path></svg>