<?xml version="1.0" standalone="no"?><!DOCTYPE svg PUBLIC "-//W3C//DTD SVG 1.1//EN" "http://www.w3.org/Graphics/SVG/1.1/DTD/svg11.dtd"><svg t="1777204267396" class="icon" viewBox="0 0 1024 1024" version="1.1" xmlns="http://www.w3.org/2000/svg" p-id="14441" xmlns:xlink="http://www.w3.org/1999/xlink" width="128" height="128"><path d="M509.693 16.493c-271.033 0-491.52 220.487-491.52 491.52s220.487 491.52 491.52 491.52 491.52-220.487 491.52-491.52-220.487-491.52-491.52-491.52zM509.693 958.573c-248.436 0-450.56-202.124-450.56-450.56s202.124-450.56 450.56-450.56 450.56 202.124 450.56 450.56-202.124 450.56-450.56 450.56z" fill="#7ede84" p-id="14442"></path><path d="M705.85 261.83l-196.158 192.171-196.158-192.171c-9.312-10.158-25.259-10.854-35.417-1.53-10.158 9.312-10.854 25.245-1.53 35.403l166.775 163.39h-148.098v50.122h189.358v52.825h-122.511v50.122h122.511v150.091h50.122v-150.064h122.511v-50.122h-122.511v-52.825h189.358v-50.122h-148.098l166.775-163.39c9.312-10.158 8.629-26.092-1.53-35.403-10.158-9.339-26.092-8.656-35.403 1.502z" fill="#7ede84" p-id="14443"></path></svg>