<?xml version="1.0" standalone="no"?><!DOCTYPE svg PUBLIC "-//W3C//DTD SVG 1.1//EN" "http://www.w3.org/Graphics/SVG/1.1/DTD/svg11.dtd"><svg t="1777098313366" class="icon" viewBox="0 0 1024 1024" version="1.1" xmlns="http://www.w3.org/2000/svg" p-id="13104" xmlns:xlink="http://www.w3.org/1999/xlink" width="128" height="128"><path d="M256 874.666667a21.333333 21.333333 0 0 1-21.333333 21.333333H96a53.393333 53.393333 0 0 1-53.333333-53.333333v-138.666667a21.333333 21.333333 0 0 1 42.666666 0v138.666667a10.666667 10.666667 0 0 0 10.666667 10.666666h138.666667a21.333333 21.333333 0 0 1 21.333333 21.333334zM42.666667 320V181.333333a53.393333 53.393333 0 0 1 53.333333-53.333333h138.666667a21.333333 21.333333 0 0 1 0 42.666667H96a10.666667 10.666667 0 0 0-10.666667 10.666666v138.666667a21.333333 21.333333 0 0 1-42.666666 0z m938.666666-138.666667v138.666667a21.333333 21.333333 0 0 1-42.666666 0V181.333333a10.666667 10.666667 0 0 0-10.666667-10.666666h-138.666667a21.333333 21.333333 0 0 1 0-42.666667h138.666667a53.393333 53.393333 0 0 1 53.333333 53.333333z m0 522.666667v138.666667a53.393333 53.393333 0 0 1-53.333333 53.333333h-138.666667a21.333333 21.333333 0 0 1 0-42.666667h138.666667a10.666667 10.666667 0 0 0 10.666667-10.666666v-138.666667a21.333333 21.333333 0 0 1 42.666666 0z" fill="#5C5C66" p-id="13105"></path></svg>