<svg xmlns="http://www.w3.org/2000/svg" viewBox="0 0 1024 1024" width="128" height="128">
  <path d="M218.37 787.06h587.25c9.56 0 16.87 7.31 16.87 16.87s-7.31 16.87-16.87 16.87h-587.25c-9.56 0-16.87-7.31-16.87-16.87s7.31-16.87 16.87-16.87zM218.37 592.44h293.63c9.56 0 16.87 7.31 16.87 16.87s-7.31 16.87-16.87 16.87h-293.63c-9.56 0-16.87-7.31-16.87-16.87s7.31-16.87 16.87-16.87zM218.37 397.81h293.63c9.56 0 16.87 7.31 16.87 16.87s-7.31 16.87-16.87 16.87h-293.63c-9.56 0-16.87-7.31-16.87-16.87s7.31-16.87 16.87-16.87zM218.37 203.19h587.25c9.56 0 16.87 7.31 16.87 16.87s-7.31 16.87-16.87 16.87h-587.25c-9.56 0-16.87-7.31-16.87-16.87s7.31-16.87 16.87-16.87zM636.87 512l84.37 48.94 84.37 48.37v-194.62l-84.37 48.37z"/>
</svg>
