<?xml version="1.0" standalone="no"?><!DOCTYPE svg PUBLIC "-//W3C//DTD SVG 1.1//EN" "http://www.w3.org/Graphics/SVG/1.1/DTD/svg11.dtd"><svg t="1777098299869" class="icon" viewBox="0 0 1024 1024" version="1.1" xmlns="http://www.w3.org/2000/svg" p-id="12111" xmlns:xlink="http://www.w3.org/1999/xlink" width="128" height="128"><path d="M506.31 162.55C362.92 165.58 247.6 282.77 247.6 426.87V631.5l-79.76 106.34c-16.33 21.78-11.92 52.67 9.86 69.01a49.28 49.28 0 0 0 29.57 9.86h609.47c10.64 0 21-3.45 29.52-9.82l2.51-2.03c19.73-16.88 22.98-46.17 7.44-66.96l-79.87-106.79V426.87c0-146.01-118.37-264.37-264.37-264.37l-5.66 0.05z m5.66 62.68c111.36 0 201.64 90.28 201.64 201.64v215.08l0.13 2.83c0.61 6.58 3.26 12.82 7.64 17.82l1.31 1.49 67.21 89.89H234.14l69.92-93.2a31.371 31.371 0 0 0 6.27-18.82V426.87c0-111.36 90.28-201.64 201.64-201.64z" p-id="12112"></path><path d="M453.31 839.11c0 34.65 28.09 62.73 62.73 62.73 34.65 0 62.73-28.09 62.73-62.73m-17.92-672.13c0.01-24.75-20.04-44.82-44.79-44.83-24.75-0.01-44.82 20.04-44.83 44.79v0.04" p-id="12113"></path></svg>